<?xml version="1.0" standalone="no"?>
<!DOCTYPE svg PUBLIC "-//W3C//DTD SVG 20010904//EN"
 "http://www.w3.org/TR/2001/REC-SVG-20010904/DTD/svg10.dtd">
<svg version="1.0" xmlns="http://www.w3.org/2000/svg"
 width="48.000000pt" height="44.000000pt" viewBox="0 0 48.000000 44.000000"
 preserveAspectRatio="xMidYMid meet">

<g transform="translate(0.000000,44.000000) scale(0.100000,-0.100000)"
fill="#000000" stroke="none">
<path d="M140 382 c-46 -22 -70 -72 -70 -142 0 -107 53 -160 160 -160 107 0
160 53 160 160 0 70 -24 120 -70 142 -21 11 -58 18 -90 18 -32 0 -69 -7 -90
-18z m108 -100 c2 -13 11 -22 21 -22 10 0 24 -7 31 -15 11 -13 8 -16 -18 -21
-21 -4 -32 -13 -34 -28 -4 -28 -32 -27 -36 2 -2 15 -10 22 -26 22 -12 0 -26 3
-29 7 -11 10 13 33 34 33 12 0 19 7 19 18 0 38 33 41 38 4z m46 22 c13 -5 14
-9 5 -20 -9 -11 -15 -11 -25 -3 -8 6 -11 15 -8 20 6 11 8 11 28 3z m-96 -117
c2 -11 -3 -17 -16 -17 -24 0 -32 8 -25 26 7 20 37 13 41 -9z"/>
<path d="M214 249 c-10 -17 13 -36 27 -22 12 12 4 33 -11 33 -5 0 -12 -5 -16
-11z"/>
</g>
</svg>
